<svg xmlns="http://www.w3.org/2000/svg" viewBox="0 0 152 145.59"><defs><style>.cls-1{fill:#fec007;}</style></defs><g id="Layer_2" data-name="Layer 2"><g id="Layer_1-2" data-name="Layer 1"><path class="cls-1" d="M0,55.76c.4-.83.75-1.69,1.22-2.48,1.69-2.84,4.4-3.74,7.5-4C22.36,48.08,36,46.83,49.63,45.65A2.36,2.36,0,0,0,51.88,44C57.32,31.16,62.81,18.37,68.25,5.55c1.48-3.48,4-5.57,7.8-5.55s6.21,2.11,7.66,5.52C89.12,18.25,94.59,30.94,100,43.68a2.85,2.85,0,0,0,2.8,2q21,1.81,41.93,3.8a7.57,7.57,0,0,1,6.9,5.65,7.66,7.66,0,0,1-2.45,8.47Q135.85,75.34,122.49,87c-1.86,1.63-3.7,3.28-5.58,4.88a1.64,1.64,0,0,0-.62,1.89q4.74,20.64,9.38,41.3c.85,3.77-.19,7-3,9-3.1,2.14-6.26,2-9.45.07q-18-10.78-36-21.56a2.09,2.09,0,0,0-2.52,0c-12,7.2-24,14.31-36,21.57-5.42,3.29-11.12.39-12.47-4.38a9,9,0,0,1,0-4.54q4.65-20.43,9.34-40.86a2.53,2.53,0,0,0-.95-2.89C24.19,82.37,13.81,73.21,3.36,64.12A11.84,11.84,0,0,1,0,59Z"/></g></g></svg>